<svg width="1728" height="645" viewBox="0 0 1728 645" fill="none" xmlns="http://www.w3.org/2000/svg">
<path d="M0 0L48 29.6734C96 59.3468 192 118.694 288 138.445C384 158.567 480 138.167 576 108.771C672 78.8199 768 39.8736 864 24.7587C960 10.2002 1056 19.4732 1152 54.4321C1248 89.0201 1344 148.367 1440 158.289C1536 167.84 1632 128.894 1680 108.771L1728 89.0201V237.387H1680C1632 237.387 1536 237.387 1440 237.387C1344 237.387 1248 237.387 1152 237.387C1056 237.387 960 237.387 864 237.387C768 237.387 672 237.387 576 237.387C480 237.387 384 237.387 288 237.387C192 237.387 96 237.387 48 237.387H0V0Z" fill="white"/>
<rect y="237.387" width="1728" height="407.082" fill="white"/>
</svg>
