<svg width="163" height="909" viewBox="0 0 163 909" fill="none" xmlns="http://www.w3.org/2000/svg">
<path d="M69.5 4V4C105.852 20.074 116.04 66.8801 89.658 96.6093L82.6889 104.463C78.255 109.459 73.0921 113.757 67.3746 117.211L33.4602 137.701C15.1747 148.749 4 168.556 4 189.92V189.92C4 207.162 11.2962 223.599 24.0838 235.166L41.2565 250.698C72.6167 279.063 83.9438 323.449 70.0107 363.373V363.373C68.0073 369.114 66.5054 375.017 65.5218 381.017L62 402.5L60.4326 424.705C60.1645 428.503 65.4175 429.758 66.8952 426.249V426.249C66.965 426.083 67.0479 425.923 67.1432 425.771L68.2926 423.932C69.0964 422.646 69.9956 421.422 70.9826 420.27L71.4456 419.73C72.1475 418.911 72.9113 418.147 73.7301 417.446V417.446C75.2358 416.155 76.9163 415.084 78.7216 414.263L78.9353 414.166C80.6386 413.392 82.431 412.831 84.2717 412.496L84.6846 412.421C86.2251 412.141 87.7876 412 89.3534 412H91.0089C92.3313 412 93.6487 412.162 94.9317 412.483V412.483C96.3046 412.826 97.6266 413.348 98.8637 414.035L99.4508 414.362C100.813 415.118 102.088 416.022 103.252 417.057L103.955 417.682C105.315 418.892 106.562 420.223 107.68 421.66L107.83 421.853C108.942 423.282 109.931 424.801 110.789 426.394L110.903 426.606C112.296 429.192 113.36 431.941 114.073 434.79L115 438.5L116 444.5V444.5C116.579 447.685 119.353 450 122.59 450H124H125.41C129.129 450 132.841 450.335 136.5 451V451L138.492 451.613C141.484 452.534 144.345 453.84 147 455.5V455.5L149.438 457.495C151.468 459.156 153.24 461.109 154.695 463.292L154.787 463.431C155.925 465.137 156.849 466.977 157.539 468.908L157.588 469.047C158.522 471.663 159 474.42 159 477.197V477.197C159 479.389 158.703 481.571 158.116 483.682L157.497 485.911C156.836 488.289 155.803 490.546 154.434 492.599L154.391 492.663C153.137 494.544 151.611 496.228 149.861 497.659V497.659C147.966 499.209 145.833 500.444 143.545 501.316L140.234 502.578C137.75 503.524 135.186 504.246 132.573 504.736L120.5 507L100.5 510.5L76 514.5V514.5C68.8376 515.343 65.5871 523.898 70.3829 529.284L103.469 566.442C115.186 579.601 115.231 599.438 103.573 612.65L56.6463 665.834C27.0349 699.394 28.5603 750.177 60.1324 781.898V781.898C88.802 810.704 93.0371 855.787 70.2336 889.428L59 906" stroke="#F566AB" stroke-width="8"/>
</svg>
