<svg width="520" height="115" viewBox="0 0 520 115" fill="none" xmlns="http://www.w3.org/2000/svg">
<path d="M18.224 86.144C16.752 86.912 15.184 87.296 13.52 87.296C11.472 87.04 9.488 86.528 7.568 85.76C5.712 84.992 4.336 84.064 3.44 82.976C2.928 79.84 2.512 76.96 2.192 74.336C1.872 71.712 1.616 69.248 1.424 66.944C1.232 64.576 1.104 62.336 1.04 60.224C0.976001 58.048 0.944001 55.872 0.944001 53.696C0.944001 50.816 0.976001 47.776 1.04 44.576C1.104 41.376 1.168 37.984 1.232 34.4C1.36 30.752 1.456 26.88 1.52 22.784C1.584 18.624 1.616 14.112 1.616 9.248C2.448 9.248 3.696 9.504 5.36 10.016C7.024 10.464 8.656 11.008 10.256 11.648C11.92 12.288 13.392 12.96 14.672 13.664C15.952 14.304 16.656 14.848 16.784 15.296C16.144 17.088 15.568 19.424 15.056 22.304C14.608 25.184 14.224 28.384 13.904 31.904C13.648 35.424 13.456 39.136 13.328 43.04C13.2 46.944 13.136 50.816 13.136 54.656C13.136 57.536 13.168 60.128 13.232 62.432C13.296 64.672 13.36 66.72 13.424 68.576C13.552 70.368 13.712 72.064 13.904 73.664C14.096 75.2 14.32 76.736 14.576 78.272C16.368 72.832 18.32 67.392 20.432 61.952C22.608 56.512 24.816 51.296 27.056 46.304C29.36 41.248 31.632 36.544 33.872 32.192C36.112 27.84 38.224 24.064 40.208 20.864C42.256 17.6 44.08 15.04 45.68 13.184C47.28 11.264 48.592 10.24 49.616 10.112C50.32 10.24 51.056 10.528 51.824 10.976C52.656 11.36 53.424 11.84 54.128 12.416C54.832 12.992 55.472 13.632 56.048 14.336C56.624 15.04 57.072 15.744 57.392 16.448C55.024 17.28 52.464 19.232 49.712 22.304C47.024 25.376 44.304 29.088 41.552 33.44C38.8 37.728 36.112 42.432 33.488 47.552C30.928 52.608 28.592 57.568 26.48 62.432C24.432 67.296 22.672 71.84 21.2 76.064C19.728 80.288 18.736 83.648 18.224 86.144ZM44.2205 73.568C44.2205 72.992 44.2525 72.288 44.3165 71.456C44.4445 70.56 44.6365 69.408 44.8925 68C45.1485 66.528 45.4685 64.768 45.8525 62.72C46.3005 60.672 46.8445 58.208 47.4845 55.328C47.6125 54.688 47.9005 53.664 48.3485 52.256C48.7965 50.848 49.3725 49.376 50.0765 47.84C50.8445 46.24 51.7405 44.704 52.7645 43.232C53.8525 41.76 55.1325 40.672 56.6045 39.968C57.6925 40.224 59.1325 40.896 60.9245 41.984C62.7165 43.008 64.2525 44.448 65.5325 46.304C64.0605 47.968 62.8125 49.632 61.7885 51.296C60.8285 52.96 59.9325 54.688 59.1005 56.48C58.3325 58.272 57.5965 60.128 56.8925 62.048C56.2525 63.968 55.5165 65.984 54.6845 68.096C53.9805 69.888 53.3405 71.744 52.7645 73.664C52.1885 75.52 51.8685 77.152 51.8045 78.56C51.8045 79.712 51.7725 80.512 51.7085 80.96C51.7085 81.472 51.5485 81.728 51.2285 81.728C50.9725 81.728 50.4605 81.568 49.6925 81.248C48.9245 80.928 48.1245 80.448 47.2925 79.808C46.5245 79.104 45.8205 78.24 45.1805 77.216C44.5405 76.192 44.2205 74.976 44.2205 73.568ZM62.5565 31.904C62.5565 31.52 62.6525 30.944 62.8445 30.176C62.5245 29.856 62.2365 29.376 61.9805 28.736C61.7885 28.096 61.6925 27.52 61.6925 27.008C61.6925 26.432 61.7565 25.664 61.8845 24.704C62.0765 23.68 62.3005 22.592 62.5565 21.44C62.8125 20.288 63.1325 19.104 63.5165 17.888C63.9005 16.608 64.2845 15.456 64.6685 14.432C65.4365 14.432 66.3645 14.656 67.4525 15.104C68.6045 15.488 69.7565 16.032 70.9085 16.736C72.0605 17.376 73.1165 18.112 74.0765 18.944C75.0365 19.712 75.7725 20.448 76.2845 21.152C75.5805 21.856 74.6525 22.848 73.5005 24.128C72.3485 25.344 71.2285 26.656 70.1405 28.064C69.0525 29.408 68.0605 30.688 67.1645 31.904C66.2685 33.12 65.6925 33.984 65.4365 34.496C64.6685 34.368 63.9965 34.048 63.4205 33.536C62.8445 32.96 62.5565 32.416 62.5565 31.904ZM66.716 73.856C66.716 71.04 67.388 67.104 68.732 62.048C70.076 56.928 71.964 50.976 74.396 44.192C78.364 33.376 82.076 24.384 85.532 17.216C89.052 9.984 92.476 4.352 95.804 0.319996C96.572 0.447994 97.5 0.767994 98.588 1.27999C99.74 1.792 100.86 2.368 101.948 3.008C103.036 3.584 103.996 4.192 104.828 4.832C105.724 5.47199 106.3 5.984 106.556 6.368C101.564 12.256 97.18 18.592 93.404 25.376C89.628 32.16 86.172 39.936 83.036 48.704C80.348 56.256 78.3 63.072 76.892 69.152C75.484 75.168 74.78 80.192 74.78 84.224C74.78 85.312 74.78 85.984 74.78 86.24C74.78 86.496 74.812 86.752 74.876 87.008C73.98 86.88 73.212 86.656 72.572 86.336C71.932 86.016 71.516 85.632 71.324 85.184C71.196 84.864 70.844 84.384 70.268 83.744C69.692 83.168 69.18 82.72 68.732 82.4C68.156 82.016 67.676 81.024 67.292 79.424C66.908 77.76 66.716 75.904 66.716 73.856ZM89.4035 73.856C89.4035 71.04 90.0755 67.104 91.4195 62.048C92.7635 56.928 94.6515 50.976 97.0835 44.192C101.052 33.376 104.764 24.384 108.22 17.216C111.74 9.984 115.164 4.352 118.492 0.319996C119.26 0.447994 120.188 0.767994 121.276 1.27999C122.428 1.792 123.548 2.368 124.636 3.008C125.724 3.584 126.684 4.192 127.516 4.832C128.412 5.47199 128.988 5.984 129.244 6.368C124.252 12.256 119.868 18.592 116.092 25.376C112.316 32.16 108.86 39.936 105.724 48.704C103.036 56.256 100.988 63.072 99.5795 69.152C98.1715 75.168 97.4675 80.192 97.4675 84.224C97.4675 85.312 97.4675 85.984 97.4675 86.24C97.4675 86.496 97.4995 86.752 97.5635 87.008C96.6675 86.88 95.8995 86.656 95.2595 86.336C94.6195 86.016 94.2035 85.632 94.0115 85.184C93.8835 84.864 93.5315 84.384 92.9555 83.744C92.3795 83.168 91.8675 82.72 91.4195 82.4C90.8435 82.016 90.3635 81.024 89.9795 79.424C89.5955 77.76 89.4035 75.904 89.4035 73.856ZM144.932 41.216C145.572 41.216 146.308 41.344 147.14 41.6C148.036 41.792 148.836 42.08 149.54 42.464C150.244 42.784 150.82 43.136 151.268 43.52C151.78 43.904 152.036 44.256 152.036 44.576C150.756 47.264 149.572 49.984 148.484 52.736C147.396 55.424 146.468 58.016 145.7 60.512C144.932 63.008 144.324 65.344 143.876 67.52C143.492 69.696 143.3 71.584 143.3 73.184C143.3 74.976 143.492 76.48 143.876 77.696C144.26 78.848 144.9 79.68 145.796 80.192C145.028 80.704 144.036 81.12 142.82 81.44C141.604 81.76 140.516 81.92 139.556 81.92C136.1 81.92 134.372 79.552 134.372 74.816C134.372 71.168 135.588 66.176 138.02 59.84C136.74 62.784 135.268 65.568 133.604 68.192C131.94 70.752 130.244 73.024 128.516 75.008C126.788 76.992 125.028 78.624 123.236 79.904C121.508 81.12 119.908 81.856 118.436 82.112C116.068 81.984 114.148 80.864 112.676 78.752C111.204 76.576 110.468 73.824 110.468 70.496C110.468 66.912 111.236 63.136 112.772 59.168C114.308 55.2 116.26 51.52 118.628 48.128C121.06 44.736 123.684 41.92 126.5 39.68C129.316 37.376 132.036 36.16 134.66 36.032C135.3 36.224 136.004 36.608 136.772 37.184C137.604 37.76 138.372 38.432 139.076 39.2C139.844 39.968 140.484 40.768 140.996 41.6C141.508 42.368 141.796 43.04 141.86 43.616C139.3 44 136.644 45.248 133.892 47.36C131.204 49.472 128.74 52.032 126.5 55.04C124.324 57.984 122.532 61.152 121.124 64.544C119.716 67.936 119.012 71.104 119.012 74.048C119.012 75.264 119.46 76.032 120.356 76.352C122.212 75.968 124.356 74.4 126.788 71.648C129.22 68.832 132.164 64.512 135.62 58.688C136.26 57.536 136.964 56.256 137.732 54.848C138.564 53.44 139.396 51.968 140.228 50.432C141.06 48.896 141.86 47.36 142.628 45.824C143.46 44.224 144.228 42.688 144.932 41.216ZM181.893 62.048C184.261 52.576 186.565 45.664 188.805 41.312C191.109 36.896 193.509 34.688 196.005 34.688C197.797 34.688 199.941 35.552 202.437 37.28C200.389 40.928 198.789 43.968 197.637 46.4C196.549 48.768 195.749 50.944 195.237 52.928C194.149 56.768 192.997 60.768 191.781 64.928C190.565 69.024 189.349 72.96 188.133 76.736C186.981 80.512 185.893 83.904 184.869 86.912C183.909 89.984 183.141 92.32 182.565 93.92C181.157 97.696 179.749 100.896 178.341 103.52C176.997 106.144 175.589 108.288 174.117 109.952C172.645 111.616 171.109 112.832 169.509 113.6C167.845 114.368 166.053 114.752 164.133 114.752C162.725 114.752 161.349 114.592 160.005 114.272C158.597 114.016 157.285 113.632 156.069 113.12C154.853 112.672 153.765 112.096 152.805 111.392C151.845 110.688 151.077 109.952 150.501 109.184C150.565 108.736 150.789 108.288 151.173 107.84C151.493 107.456 151.813 107.232 152.133 107.168C153.221 108.32 154.373 109.152 155.589 109.664C156.741 110.176 158.149 110.432 159.813 110.432C161.861 110.432 163.685 109.824 165.285 108.608C166.821 107.392 168.389 105.024 169.989 101.504C171.589 98.048 173.317 93.152 175.173 86.816C177.029 80.544 179.269 72.288 181.893 62.048ZM197.541 27.104C197.541 26.784 197.637 26.24 197.829 25.472C197.061 24.704 196.677 23.616 196.677 22.208C196.677 21.632 196.741 20.832 196.869 19.808C197.061 18.784 197.285 17.696 197.541 16.544C197.861 15.328 198.181 14.112 198.501 12.896C198.885 11.68 199.269 10.624 199.653 9.72799C200.421 9.72799 201.349 9.952 202.437 10.4C203.589 10.784 204.741 11.328 205.893 12.032C207.045 12.672 208.101 13.408 209.061 14.24C210.021 15.008 210.757 15.744 211.269 16.448C210.501 17.152 209.541 18.144 208.389 19.424C207.237 20.704 206.117 22.048 205.029 23.456C203.941 24.8 202.949 26.08 202.053 27.296C201.157 28.448 200.613 29.28 200.421 29.792C199.653 29.664 198.981 29.344 198.405 28.832C197.829 28.256 197.541 27.68 197.541 27.104ZM213.796 83.36C210.148 82.976 207.236 81.376 205.06 78.56C202.884 75.744 201.796 72.16 201.796 67.808C201.796 65.248 202.18 62.592 202.948 59.84C203.716 57.088 204.804 54.432 206.212 51.872C207.62 49.248 209.284 46.784 211.204 44.48C213.124 42.176 215.204 40.192 217.444 38.528C220.964 35.904 224.26 34.592 227.332 34.592C229.38 35.68 231.396 37.952 233.38 41.408C233.7 41.408 233.988 41.408 234.244 41.408C234.5 41.344 234.788 41.312 235.108 41.312C238.5 41.312 240.196 44.32 240.196 50.336C240.196 54.368 239.524 58.208 238.18 61.856C236.9 65.44 235.076 68.704 232.708 71.648C230.404 74.592 227.62 77.088 224.356 79.136C221.156 81.12 217.636 82.528 213.796 83.36ZM218.692 53.12C217.604 54.592 216.58 56.192 215.62 57.92C214.66 59.648 213.828 61.408 213.124 63.2C212.42 64.928 211.876 66.624 211.492 68.288C211.108 69.888 210.916 71.328 210.916 72.608C210.916 74.144 211.172 75.616 211.684 77.024C212.196 78.432 212.772 79.232 213.412 79.424C216.292 78.784 218.916 77.6 221.284 75.872C223.716 74.08 225.796 71.872 227.524 69.248C229.316 66.624 230.692 63.648 231.652 60.32C232.676 56.992 233.188 53.44 233.188 49.664C233.188 48 233.092 46.688 232.9 45.728C232.708 44.768 232.388 43.936 231.94 43.232C229.124 44.064 226.596 45.408 224.356 47.264C222.18 49.12 220.292 51.072 218.692 53.12ZM245.035 70.976C245.035 68.672 245.611 65.472 246.763 61.376C247.979 57.28 249.547 52.8 251.467 47.936C253.387 43.072 255.563 38.048 257.995 32.864C260.427 27.68 262.859 22.848 265.291 18.368C267.787 13.888 270.155 10.016 272.395 6.752C274.699 3.488 276.651 1.28 278.251 0.127998C279.147 0.191998 280.107 0.575996 281.131 1.27999C282.219 1.984 283.211 2.848 284.107 3.872C285.003 4.832 285.739 5.856 286.315 6.944C286.955 8.032 287.275 9.024 287.275 9.92C284.395 12.224 281.451 15.2 278.443 18.848C275.499 22.432 272.683 26.4 269.995 30.752C267.307 35.04 264.811 39.616 262.507 44.48C260.267 49.28 258.379 54.016 256.843 58.688C258.891 55.168 261.035 51.968 263.275 49.088C265.515 46.208 267.755 43.744 269.995 41.696C272.235 39.648 274.411 38.08 276.523 36.992C278.699 35.84 280.747 35.232 282.667 35.168C285.483 37.216 286.891 39.936 286.891 43.328C286.891 45.376 286.475 47.456 285.643 49.568C284.811 51.616 283.691 53.536 282.283 55.328C280.939 57.056 279.371 58.56 277.579 59.84C275.851 61.056 274.027 61.856 272.107 62.24C272.747 64.48 273.547 66.752 274.507 69.056C275.531 71.36 276.715 73.6 278.059 75.776C279.467 77.952 281.035 79.968 282.763 81.824C284.555 83.68 286.571 85.248 288.811 86.528C288.491 87.168 288.011 87.808 287.371 88.448C286.731 89.088 285.963 89.632 285.067 90.08C284.171 90.592 283.179 90.976 282.091 91.232C281.067 91.552 280.043 91.712 279.019 91.712C277.291 91.712 275.659 90.848 274.123 89.12C272.651 87.392 271.307 84.896 270.091 81.632C269.131 79.008 268.203 75.872 267.307 72.224C266.411 68.576 265.611 64.768 264.907 60.8C265.803 60.224 266.923 59.392 268.267 58.304C269.611 57.152 271.019 55.84 272.491 54.368C278.123 48.928 280.939 44.224 280.939 40.256C280.939 39.744 280.587 39.488 279.883 39.488C278.603 39.552 277.099 40.16 275.371 41.312C273.643 42.464 271.787 44.064 269.803 46.112C267.883 48.16 265.899 50.56 263.851 53.312C261.867 56.064 259.947 59.04 258.091 62.24C257.323 63.52 256.619 64.992 255.979 66.656C255.339 68.32 254.763 70.048 254.251 71.84C253.803 73.568 253.451 75.296 253.195 77.024C252.939 78.752 252.811 80.352 252.811 81.824C252.811 82.72 252.907 83.456 253.099 84.032C251.115 83.84 249.899 83.328 249.451 82.496C248.939 81.728 248.491 81.088 248.107 80.576C247.787 80.128 247.435 79.744 247.051 79.424C246.475 78.976 245.995 78.016 245.611 76.544C245.227 75.072 245.035 73.216 245.035 70.976ZM318.58 77.888C317.364 76.864 316.532 75.584 316.084 74.048C315.7 72.512 315.508 71.2 315.508 70.112C315.508 68.768 315.668 67.616 315.988 66.656C315.732 66.656 315.156 67.168 314.26 68.192C313.364 69.216 312.372 70.432 311.284 71.84C310.26 73.248 309.236 74.624 308.212 75.968C307.188 77.312 306.42 78.304 305.908 78.944C305.076 79.84 304.276 80.544 303.508 81.056C302.804 81.568 302.228 81.856 301.78 81.92C300.756 81.856 299.668 81.632 298.516 81.248C297.428 80.928 296.372 80.448 295.348 79.808C294.388 79.168 293.524 78.4 292.756 77.504C292.052 76.608 291.572 75.584 291.316 74.432C291.316 72.64 291.348 71.168 291.412 70.016C291.54 68.864 291.764 67.616 292.084 66.272C292.66 63.84 293.492 61.088 294.58 58.016C295.732 54.944 297.044 51.936 298.516 48.992C299.988 45.984 301.62 43.2 303.412 40.64C305.268 38.016 307.22 35.968 309.268 34.496C309.844 34.496 310.516 34.56 311.284 34.688C312.052 34.752 312.82 34.912 313.588 35.168C314.42 35.424 315.188 35.744 315.892 36.128C316.66 36.448 317.3 36.896 317.812 37.472C317.236 38.112 315.764 40.256 313.396 43.904C311.092 47.552 308.5 52.8 305.62 59.648C305.3 60.352 304.916 61.376 304.468 62.72C304.02 64.064 303.572 65.472 303.124 66.944C302.676 68.416 302.292 69.856 301.972 71.264C301.716 72.672 301.588 73.792 301.588 74.624C301.588 75.136 301.652 75.52 301.78 75.776C301.972 76.032 302.132 76.224 302.26 76.352C303.22 75.968 304.436 74.912 305.908 73.184C307.38 71.456 309.428 68.8 312.052 65.216C312.692 64.32 313.428 63.296 314.26 62.144C315.156 60.992 316.052 59.776 316.948 58.496C317.844 57.152 318.676 55.776 319.444 54.368C320.276 52.96 320.948 51.552 321.46 50.144C321.716 49.376 322.036 48.48 322.42 47.456C322.868 46.368 323.38 45.248 323.956 44.096C324.596 42.944 325.3 41.792 326.068 40.64C326.9 39.424 327.86 38.304 328.948 37.28C329.78 37.28 330.676 37.376 331.636 37.568C332.596 37.76 333.492 38.016 334.324 38.336C335.22 38.592 335.988 38.912 336.628 39.296C337.268 39.616 337.748 39.968 338.068 40.352C336.916 43.168 335.636 45.952 334.228 48.704C332.82 51.456 331.508 54.176 330.292 56.864C329.076 59.488 328.052 62.112 327.22 64.736C326.388 67.36 325.972 69.92 325.972 72.416C325.972 73.76 326.068 74.944 326.26 75.968C326.516 76.928 326.772 77.76 327.028 78.464C327.284 79.104 327.508 79.648 327.7 80.096C327.956 80.544 328.084 80.928 328.084 81.248C328.084 81.312 328.02 81.408 327.892 81.536C327.828 81.6 327.764 81.632 327.7 81.632C327.252 81.632 326.676 81.536 325.972 81.344C325.268 81.152 324.468 80.864 323.572 80.48C322.74 80.16 321.876 79.776 320.98 79.328C320.148 78.88 319.348 78.4 318.58 77.888ZM355.458 33.44C357.122 33.952 358.69 35.104 360.162 36.896C361.634 38.624 362.722 40.544 363.426 42.656C362.722 44.384 361.634 46.464 360.162 48.896C358.69 51.328 357.218 53.824 355.746 56.384C354.274 58.88 352.93 61.28 351.714 63.584C350.562 65.824 349.89 67.68 349.698 69.152C350.722 68.064 351.842 66.816 353.058 65.408C354.338 63.936 355.554 62.496 356.706 61.088C357.922 59.616 359.042 58.304 360.066 57.152C361.09 55.936 361.89 55.04 362.466 54.464C363.682 53.184 365.122 51.712 366.786 50.048C368.45 48.32 370.178 46.72 371.97 45.248C373.826 43.712 375.682 42.432 377.538 41.408C379.394 40.32 381.09 39.776 382.626 39.776C384.29 39.776 385.666 40.352 386.754 41.504C387.906 42.592 388.802 43.744 389.442 44.96C389.442 45.088 389.186 45.28 388.674 45.536C388.226 45.728 387.554 46.336 386.658 47.36C385.762 48.512 384.738 50.112 383.586 52.16C382.498 54.144 381.41 56.32 380.322 58.688C379.298 60.992 378.434 63.36 377.73 65.792C377.026 68.224 376.674 70.432 376.674 72.416C376.674 74.016 376.866 75.04 377.25 75.488C377.698 75.936 378.306 76.16 379.074 76.16C379.778 76.16 380.514 76 381.282 75.68C382.05 75.36 382.658 75.2 383.106 75.2C383.362 75.328 383.554 75.616 383.682 76.064C383.874 76.448 383.97 76.8 383.97 77.12C383.458 77.568 382.85 78.016 382.146 78.464C381.442 78.912 380.706 79.328 379.938 79.712C379.17 80.096 378.402 80.416 377.634 80.672C376.93 80.928 376.29 81.056 375.714 81.056C373.858 81.056 372.322 80.768 371.106 80.192C369.954 79.68 369.026 78.976 368.322 78.08C367.682 77.184 367.234 76.128 366.978 74.912C366.722 73.632 366.594 72.288 366.594 70.88C366.594 70.112 366.658 69.248 366.786 68.288C366.914 67.328 367.17 66.208 367.554 64.928C367.938 63.584 368.482 62.016 369.186 60.224C369.89 58.368 370.786 56.16 371.874 53.6C371.746 53.6 370.882 54.048 369.282 54.944C367.682 55.84 365.954 57.216 364.098 59.072C361.09 61.952 358.37 64.8 355.938 67.616C353.57 70.432 351.138 73.568 348.642 77.024C347.234 79.008 345.986 80.672 344.898 82.016C343.874 83.424 342.978 84.352 342.21 84.8C340.866 84.032 339.874 82.944 339.234 81.536C338.594 80.192 338.114 78.784 337.794 77.312C337.794 76.096 337.954 74.56 338.274 72.704C338.658 70.848 339.138 68.8 339.714 66.56C340.354 64.256 341.122 61.856 342.018 59.36C342.914 56.864 343.906 54.368 344.994 51.872C347.426 46.24 349.634 41.824 351.618 38.624C353.666 35.424 354.946 33.696 355.458 33.44ZM391.846 73.568C391.846 72.992 391.878 72.288 391.942 71.456C392.07 70.56 392.262 69.408 392.518 68C392.774 66.528 393.094 64.768 393.478 62.72C393.926 60.672 394.47 58.208 395.109 55.328C395.238 54.688 395.526 53.664 395.974 52.256C396.422 50.848 396.998 49.376 397.702 47.84C398.47 46.24 399.366 44.704 400.39 43.232C401.478 41.76 402.758 40.672 404.23 39.968C405.318 40.224 406.758 40.896 408.55 41.984C410.342 43.008 411.878 44.448 413.158 46.304C411.686 47.968 410.438 49.632 409.414 51.296C408.454 52.96 407.558 54.688 406.726 56.48C405.958 58.272 405.222 60.128 404.518 62.048C403.878 63.968 403.142 65.984 402.31 68.096C401.606 69.888 400.966 71.744 400.39 73.664C399.814 75.52 399.494 77.152 399.43 78.56C399.43 79.712 399.398 80.512 399.334 80.96C399.334 81.472 399.174 81.728 398.854 81.728C398.598 81.728 398.086 81.568 397.318 81.248C396.55 80.928 395.75 80.448 394.918 79.808C394.15 79.104 393.446 78.24 392.806 77.216C392.166 76.192 391.846 74.976 391.846 73.568ZM410.182 31.904C410.182 31.52 410.278 30.944 410.47 30.176C410.15 29.856 409.862 29.376 409.606 28.736C409.414 28.096 409.318 27.52 409.318 27.008C409.318 26.432 409.382 25.664 409.51 24.704C409.702 23.68 409.926 22.592 410.182 21.44C410.438 20.288 410.758 19.104 411.142 17.888C411.526 16.608 411.91 15.456 412.294 14.432C413.062 14.432 413.99 14.656 415.078 15.104C416.23 15.488 417.382 16.032 418.534 16.736C419.686 17.376 420.742 18.112 421.702 18.944C422.662 19.712 423.398 20.448 423.91 21.152C423.206 21.856 422.278 22.848 421.126 24.128C419.974 25.344 418.854 26.656 417.766 28.064C416.678 29.408 415.686 30.688 414.79 31.904C413.894 33.12 413.318 33.984 413.062 34.496C412.294 34.368 411.622 34.048 411.046 33.536C410.47 32.96 410.182 32.416 410.182 31.904ZM469.925 50.528C468.901 50.592 467.653 51.264 466.181 52.544C464.709 53.76 463.109 55.36 461.381 57.344C459.717 59.264 457.957 61.408 456.101 63.776C454.309 66.144 452.549 68.512 450.821 70.88C449.157 73.184 447.589 75.36 446.117 77.408C444.645 79.456 443.397 81.088 442.373 82.304C440.965 81.728 439.749 80.896 438.725 79.808C437.701 78.656 436.965 77.248 436.517 75.584C436.837 73.6 437.285 71.552 437.861 69.44C438.437 67.264 439.173 65.024 440.069 62.72C441.029 60.416 442.181 58.016 443.525 55.52C444.933 52.96 446.629 50.272 448.613 47.456C447.653 47.52 446.341 48.224 444.677 49.568C443.013 50.848 441.221 52.544 439.301 54.656C437.381 56.704 435.397 59.04 433.349 61.664C431.301 64.224 429.381 66.752 427.589 69.248C425.221 72.576 423.237 75.488 421.637 77.984C420.101 80.48 418.981 81.952 418.277 82.4C416.613 81.184 415.461 79.872 414.821 78.464C414.181 77.056 413.701 75.488 413.381 73.76C413.445 72.224 413.669 70.304 414.053 68C414.501 65.696 415.109 63.328 415.877 60.896C417.349 56.224 419.237 51.584 421.541 46.976C423.909 42.368 426.181 38.144 428.357 34.304C430.149 34.688 431.749 35.296 433.157 36.128C434.629 36.96 436.165 38.176 437.765 39.776C437.125 41.76 436.133 43.872 434.789 46.112C433.445 48.288 432.037 50.592 430.565 53.024C429.093 55.456 427.749 57.952 426.533 60.512C425.317 63.072 424.517 65.664 424.133 68.288C425.925 65.728 428.037 62.784 430.469 59.456C432.965 56.128 435.493 52.992 438.053 50.048C440.677 47.104 443.269 44.608 445.829 42.56C448.389 40.512 450.693 39.488 452.741 39.488C453.509 39.488 454.341 39.616 455.237 39.872C456.133 40.128 456.965 40.448 457.733 40.832C458.501 41.216 459.141 41.6 459.653 41.984C460.165 42.304 460.453 42.56 460.517 42.752C460.197 44.032 459.429 45.792 458.213 48.032C457.061 50.208 455.813 52.512 454.469 54.944C453.125 57.376 451.877 59.744 450.725 62.048C449.573 64.288 448.901 66.08 448.709 67.424C451.845 63.136 454.789 59.264 457.541 55.808C460.293 52.288 462.885 49.28 465.317 46.784C467.749 44.288 469.989 42.368 472.037 41.024C474.149 39.68 476.133 39.008 477.989 39.008C479.269 39.008 480.453 39.36 481.541 40.064C482.693 40.704 483.493 41.664 483.941 42.944C483.365 44.864 482.405 47.168 481.061 49.856C479.781 52.544 478.469 55.392 477.125 58.4C475.781 61.344 474.565 64.256 473.477 67.136C472.453 70.016 471.941 72.608 471.941 74.912C471.941 76.256 472.133 77.152 472.517 77.6C472.901 77.984 473.445 78.176 474.149 78.176C474.917 78.176 475.621 78.048 476.261 77.792C476.965 77.472 477.477 77.312 477.797 77.312C478.181 77.568 478.405 77.888 478.469 78.272C478.533 78.656 478.565 79.008 478.565 79.328C477.285 80.352 475.973 81.184 474.629 81.824C473.285 82.528 471.781 82.88 470.117 82.88C468.581 82.88 467.301 82.624 466.277 82.112C465.317 81.6 464.517 80.896 463.877 80C463.237 79.104 462.789 78.08 462.533 76.928C462.277 75.776 462.149 74.528 462.149 73.184C462.149 71.008 462.437 68.864 463.013 66.752C463.589 64.576 464.261 62.528 465.029 60.608C465.861 58.624 466.725 56.8 467.621 55.136C468.517 53.408 469.285 51.872 469.925 50.528ZM487.939 73.568C487.939 72.992 487.971 72.288 488.035 71.456C488.163 70.56 488.355 69.408 488.611 68C488.867 66.528 489.187 64.768 489.571 62.72C490.019 60.672 490.563 58.208 491.203 55.328C491.331 54.688 491.619 53.664 492.067 52.256C492.515 50.848 493.091 49.376 493.795 47.84C494.563 46.24 495.459 44.704 496.483 43.232C497.571 41.76 498.851 40.672 500.323 39.968C501.411 40.224 502.851 40.896 504.643 41.984C506.435 43.008 507.971 44.448 509.251 46.304C507.779 47.968 506.531 49.632 505.507 51.296C504.547 52.96 503.651 54.688 502.819 56.48C502.051 58.272 501.315 60.128 500.611 62.048C499.971 63.968 499.235 65.984 498.403 68.096C497.699 69.888 497.059 71.744 496.483 73.664C495.907 75.52 495.587 77.152 495.523 78.56C495.523 79.712 495.491 80.512 495.427 80.96C495.427 81.472 495.267 81.728 494.947 81.728C494.691 81.728 494.179 81.568 493.411 81.248C492.643 80.928 491.843 80.448 491.011 79.808C490.243 79.104 489.539 78.24 488.899 77.216C488.259 76.192 487.939 74.976 487.939 73.568ZM506.275 31.904C506.275 31.52 506.371 30.944 506.563 30.176C506.243 29.856 505.955 29.376 505.699 28.736C505.507 28.096 505.411 27.52 505.411 27.008C505.411 26.432 505.475 25.664 505.603 24.704C505.795 23.68 506.019 22.592 506.275 21.44C506.531 20.288 506.851 19.104 507.235 17.888C507.619 16.608 508.003 15.456 508.387 14.432C509.155 14.432 510.083 14.656 511.171 15.104C512.323 15.488 513.475 16.032 514.627 16.736C515.779 17.376 516.835 18.112 517.795 18.944C518.755 19.712 519.491 20.448 520.003 21.152C519.299 21.856 518.371 22.848 517.219 24.128C516.067 25.344 514.947 26.656 513.859 28.064C512.771 29.408 511.779 30.688 510.883 31.904C509.987 33.12 509.411 33.984 509.155 34.496C508.387 34.368 507.715 34.048 507.139 33.536C506.563 32.96 506.275 32.416 506.275 31.904Z" fill="#F771C1"/>
</svg>
