<svg width="169" height="76" viewBox="0 0 169 76" fill="none" xmlns="http://www.w3.org/2000/svg">
<path d="M136.908 59.568C136.908 58.992 136.94 58.288 137.004 57.456C137.132 56.56 137.324 55.408 137.58 54C137.836 52.528 138.156 50.768 138.54 48.72C138.988 46.672 139.532 44.208 140.172 41.328C140.3 40.688 140.588 39.664 141.036 38.256C141.484 36.848 142.06 35.376 142.764 33.84C143.532 32.24 144.428 30.704 145.452 29.232C146.54 27.76 147.82 26.672 149.292 25.968C150.38 26.224 151.82 26.896 153.612 27.984C155.404 29.008 156.94 30.448 158.22 32.304C156.748 33.968 155.5 35.632 154.476 37.296C153.516 38.96 152.62 40.688 151.788 42.48C151.02 44.272 150.284 46.128 149.58 48.048C148.94 49.968 148.204 51.984 147.372 54.096C146.668 55.888 146.028 57.744 145.452 59.664C144.876 61.52 144.556 63.152 144.492 64.56C144.492 65.712 144.46 66.512 144.396 66.96C144.396 67.472 144.236 67.728 143.916 67.728C143.66 67.728 143.148 67.568 142.38 67.248C141.612 66.928 140.812 66.448 139.98 65.808C139.212 65.104 138.508 64.24 137.868 63.216C137.228 62.192 136.908 60.976 136.908 59.568ZM155.244 17.904C155.244 17.52 155.34 16.944 155.532 16.176C155.212 15.856 154.924 15.376 154.668 14.736C154.476 14.096 154.38 13.52 154.38 13.008C154.38 12.432 154.444 11.664 154.572 10.704C154.764 9.68 154.988 8.59201 155.244 7.44001C155.5 6.28801 155.82 5.10401 156.204 3.88801C156.588 2.60801 156.972 1.45601 157.356 0.432007C158.124 0.432007 159.052 0.656006 160.14 1.104C161.292 1.48801 162.444 2.03201 163.596 2.736C164.748 3.376 165.804 4.112 166.764 4.944C167.724 5.71201 168.46 6.44801 168.972 7.152C168.268 7.856 167.34 8.848 166.188 10.128C165.036 11.344 163.916 12.656 162.828 14.064C161.74 15.408 160.748 16.688 159.852 17.904C158.956 19.12 158.38 19.984 158.124 20.496C157.356 20.368 156.684 20.048 156.108 19.536C155.532 18.96 155.244 18.416 155.244 17.904Z" fill="#BA0000"/>
<path d="M108.726 29.232C108.406 28.848 108.118 28.048 107.862 26.832C107.606 25.552 107.478 24.464 107.478 23.568C109.142 23.696 110.742 23.824 112.278 23.952C113.814 24.016 115.222 24.08 116.502 24.144C117.462 22.224 118.486 20.336 119.574 18.48C120.726 16.56 121.814 14.832 122.838 13.296C123.926 11.696 124.918 10.352 125.814 9.26398C126.774 8.17598 127.51 7.47198 128.022 7.15198C128.662 7.15198 129.462 7.27998 130.422 7.53598C131.446 7.72798 132.47 8.01598 133.494 8.39998C134.518 8.71998 135.446 9.07198 136.278 9.45597C137.11 9.83998 137.686 10.224 138.006 10.608C136.086 13.04 134.422 15.312 133.014 17.424C131.67 19.472 130.198 21.84 128.598 24.528C129.878 24.528 131.158 24.496 132.438 24.432C133.782 24.368 135.126 24.272 136.47 24.144C136.79 24.464 137.046 24.88 137.238 25.392C137.43 25.84 137.526 26.32 137.526 26.832C134.39 27.984 130.582 28.624 126.102 28.752C124.502 31.824 123.062 34.896 121.782 37.968C120.566 40.976 119.51 43.888 118.614 46.704C117.782 49.52 117.11 52.176 116.598 54.672C116.15 57.168 115.926 59.408 115.926 61.392C115.926 64.208 116.982 65.776 119.094 66.096C121.014 65.84 122.838 65.36 124.566 64.656C126.294 63.952 127.83 63.056 129.174 61.968C129.558 62.544 129.782 63.024 129.846 63.408C129.462 63.984 128.79 64.656 127.83 65.424C126.934 66.192 125.942 66.928 124.854 67.632C123.766 68.4 122.71 69.04 121.686 69.552C120.662 70.064 119.894 70.352 119.382 70.416C117.782 70.352 116.182 70 114.582 69.36C112.982 68.72 111.51 67.92 110.166 66.96C108.886 66 107.83 64.944 106.998 63.792C106.166 62.576 105.75 61.392 105.75 60.24C105.75 58.704 105.942 56.784 106.326 54.48C106.774 52.112 107.382 49.552 108.15 46.8C108.918 44.048 109.814 41.168 110.838 38.16C111.862 35.152 112.982 32.176 114.198 29.232H108.726Z" fill="#BA0000"/>
<path d="M102.994 27.7921C102.93 29.0081 102.706 30.2881 102.322 31.6321C102.002 32.9121 101.586 34.0961 101.074 35.1841C100.562 36.2081 100.018 37.0721 99.4424 37.7761C98.8664 38.4801 98.3224 38.8321 97.8104 38.8321C97.1064 38.7681 96.6904 38.2881 96.5624 37.3921C96.5624 37.2001 96.6264 36.9121 96.7544 36.5281C96.9464 36.0801 97.1384 35.6001 97.3304 35.0881C97.5224 34.5761 97.6824 34.0641 97.8104 33.5521C98.0024 33.0401 98.0984 32.5921 98.0984 32.2081C98.0984 31.3121 97.8744 30.5761 97.4264 30.0001C97.0424 29.3601 96.4984 29.0401 95.7944 29.0401C93.2344 29.0401 91.2824 30.6401 89.9384 33.8401C88.5944 37.0401 87.9224 41.7441 87.9224 47.9521C87.9224 48.5921 87.9544 48.9761 88.0184 49.1041C89.3624 49.0401 90.5464 49.0081 91.5704 49.0081C92.6584 48.9441 93.7144 48.9121 94.7384 48.9121C94.8024 49.0401 94.8344 49.2961 94.8344 49.6801C94.8344 50.2561 94.7064 50.6721 94.4504 50.9281C92.9784 51.2481 91.7944 51.5361 90.8984 51.7921C90.0664 51.9841 89.4264 52.1761 88.9784 52.3681C88.5304 52.5601 88.2424 52.7841 88.1144 53.0401C88.0504 53.2321 88.0184 53.5201 88.0184 53.9041C88.0184 54.4161 88.0184 54.9281 88.0184 55.4401C88.0824 55.9521 88.1144 56.5921 88.1144 57.3601C88.1144 62.7361 86.6424 67.0561 83.6984 70.3201C80.8184 73.5841 76.7864 75.4721 71.6024 75.9841C70.7064 75.9201 69.7784 75.6641 68.8184 75.2161C67.8584 74.7681 66.9304 74.1921 66.0344 73.4881C65.2024 72.7841 64.4664 71.9841 63.8264 71.0881C63.1864 70.2561 62.7384 69.3921 62.4824 68.4961C62.4824 66.0641 62.9944 63.7601 64.0184 61.5841C65.0424 59.3441 66.4184 57.3921 68.1464 55.7281C69.9384 54.0001 72.0184 52.6241 74.3864 51.6001C76.8184 50.5121 79.4424 49.8721 82.2584 49.6801C82.2584 48.0801 82.0984 46.5121 81.7784 44.9761C81.4584 43.4401 81.1064 41.9681 80.7224 40.5601C80.4024 39.0881 80.0824 37.6801 79.7624 36.3361C79.4424 34.9281 79.2824 33.5521 79.2824 32.2081C79.2824 30.4801 79.6344 28.7841 80.3384 27.1201C81.0424 25.3921 81.9704 23.8241 83.1224 22.4161C84.2744 20.9441 85.6184 19.6961 87.1544 18.6721C88.6904 17.6481 90.2904 16.9441 91.9544 16.5601C92.6584 16.7521 93.5864 17.3281 94.7384 18.2881C95.9544 19.1841 97.1384 20.2081 98.2904 21.3601C99.4424 22.5121 100.466 23.6961 101.362 24.9121C102.258 26.0641 102.802 27.0241 102.994 27.7921ZM71.3144 71.5681C72.8504 70.9281 74.2904 70.0001 75.6344 68.7841C77.0424 67.5681 78.2584 66.1921 79.2824 64.6561C80.3064 63.1201 81.1064 61.4881 81.6824 59.7601C82.3224 58.0321 82.6424 56.3361 82.6424 54.6721C81.3624 54.8641 79.9544 55.4721 78.4184 56.4961C76.8824 57.4561 75.4424 58.6401 74.0984 60.0481C72.7544 61.3921 71.6344 62.8001 70.7384 64.2721C69.8424 65.7441 69.3944 67.0241 69.3944 68.1121C69.3944 69.5201 70.0344 70.6721 71.3144 71.5681Z" fill="#BA0000"/>
<path d="M65.43 26.2561C65.1741 30.2241 64.4701 33.6481 63.3181 36.5281C62.166 39.3441 60.5021 41.8401 58.3261 44.0161C56.2141 46.1281 53.6221 48.0481 50.5501 49.7761C47.4781 51.5041 43.894 53.1681 39.798 54.7681C39.798 55.1521 39.766 55.5681 39.702 56.0161C39.702 56.4001 39.702 56.8161 39.702 57.2641C39.702 58.0961 39.7661 58.9601 39.8941 59.8561C40.0221 60.7521 40.2461 61.5841 40.5661 62.3521C40.8861 63.1201 41.334 63.7601 41.91 64.2721C42.486 64.7201 43.222 64.9441 44.118 64.9441C45.8461 64.9441 47.5421 64.5601 49.2061 63.7921C50.8701 63.0241 52.4381 62.0961 53.9101 61.0081C55.4461 59.8561 56.8541 58.6401 58.1341 57.3601C59.4781 56.0161 60.6621 54.8001 61.6861 53.7121C62.3261 54.2881 62.8701 54.8321 63.3181 55.3441C60.438 59.1841 57.2701 62.3841 53.8141 64.9441C50.4221 67.4401 47.1901 69.0401 44.118 69.7441C39.702 69.2321 36.246 67.6321 33.75 64.9441C31.318 62.1921 30.1021 58.8961 30.1021 55.0561C30.1021 52.4321 30.4541 49.7761 31.1581 47.0881C31.9261 44.3361 32.95 41.7121 34.23 39.2161C35.574 36.6561 37.1101 34.2561 38.8381 32.0161C40.6301 29.7761 42.5181 27.8241 44.5021 26.1601C46.5501 24.4961 48.6301 23.1841 50.7421 22.2241C52.9181 21.2641 55.0621 20.7841 57.1741 20.7841C60.1181 21.1681 62.8701 22.9921 65.43 26.2561ZM58.806 29.4241C57.0781 29.6801 55.2861 30.3841 53.43 31.5361C51.5741 32.6881 49.8141 34.2241 48.1501 36.1441C46.5501 38.0641 45.078 40.3041 43.7341 42.8641C42.39 45.4241 41.3341 48.1761 40.5661 51.1201C45.6861 48.5601 49.942 45.4241 53.334 41.7121C56.726 37.9361 58.5501 33.8401 58.806 29.4241Z" fill="#BA0000"/>
<path d="M2.976 29.232C2.656 28.848 2.368 28.048 2.112 26.832C1.856 25.552 1.728 24.464 1.728 23.568C3.392 23.696 4.992 23.824 6.528 23.952C8.064 24.016 9.472 24.08 10.752 24.144C11.712 22.224 12.736 20.336 13.824 18.48C14.976 16.56 16.064 14.832 17.088 13.296C18.176 11.696 19.168 10.352 20.064 9.26398C21.024 8.17598 21.76 7.47198 22.272 7.15198C22.912 7.15198 23.712 7.27998 24.672 7.53598C25.696 7.72798 26.72 8.01598 27.744 8.39998C28.768 8.71998 29.696 9.07198 30.528 9.45597C31.36 9.83998 31.936 10.224 32.256 10.608C30.336 13.04 28.672 15.312 27.264 17.424C25.92 19.472 24.448 21.84 22.848 24.528C24.128 24.528 25.408 24.496 26.688 24.432C28.032 24.368 29.376 24.272 30.72 24.144C31.04 24.464 31.296 24.88 31.488 25.392C31.68 25.84 31.776 26.32 31.776 26.832C28.64 27.984 24.832 28.624 20.352 28.752C18.752 31.824 17.312 34.896 16.032 37.968C14.816 40.976 13.76 43.888 12.864 46.704C12.032 49.52 11.36 52.176 10.848 54.672C10.4 57.168 10.176 59.408 10.176 61.392C10.176 64.208 11.232 65.776 13.344 66.096C15.264 65.84 17.088 65.36 18.816 64.656C20.544 63.952 22.08 63.056 23.424 61.968C23.808 62.544 24.032 63.024 24.096 63.408C23.712 63.984 23.04 64.656 22.08 65.424C21.184 66.192 20.192 66.928 19.104 67.632C18.016 68.4 16.96 69.04 15.936 69.552C14.912 70.064 14.144 70.352 13.632 70.416C12.032 70.352 10.432 70 8.832 69.36C7.232 68.72 5.76 67.92 4.416 66.96C3.136 66 2.08 64.944 1.248 63.792C0.416 62.576 0 61.392 0 60.24C0 58.704 0.192 56.784 0.576001 54.48C1.024 52.112 1.632 49.552 2.4 46.8C3.168 44.048 4.064 41.168 5.088 38.16C6.112 35.152 7.232 32.176 8.448 29.232H2.976Z" fill="#BA0000"/>
</svg>
