<svg width="1195" height="498" viewBox="0 0 1195 498" fill="none" xmlns="http://www.w3.org/2000/svg">
<path d="M8.41162 125.371C13.2702 165.859 43.8052 199.404 54.8634 238.108C63.0715 266.836 72.1438 296.155 85.3964 322.66C91.8599 335.587 89.4641 358.213 98.1837 369.112C101.611 373.396 102.359 390.517 102.359 385.031C102.359 370.805 106.049 357.359 111.754 344.321C131.246 299.768 145.712 254.272 160.554 208.097C165.209 193.615 168.122 180.135 168.122 164.776C168.122 160.075 165.212 138.338 168.644 135.287C175.091 129.557 191.101 173.435 192.131 177.042C195.297 188.121 200.825 198.336 202.831 209.923C204.782 221.197 203.353 233.744 203.353 245.154C203.353 274.121 203.353 303.088 203.353 332.055C203.353 349.653 196.148 387.003 226.84 375.636C239.288 371.026 247.088 356.048 252.675 345.103C264.815 321.322 275.424 296.173 282.686 270.467C295.761 224.188 294.951 178.183 294.951 130.59C294.951 113.366 294.951 96.1426 294.951 78.9189C294.951 10.5057 290.851 216.539 301.998 284.038C305.085 302.733 306.792 325.619 317.916 341.45C325.466 352.194 325.385 355.96 338.272 347.974C384.664 319.224 406.544 269.601 412.386 216.187C414.361 198.128 417.387 179.334 417.083 161.123C416.879 148.854 412.145 136.958 410.559 124.849C410.463 124.118 406.227 94.9945 403.513 97.7084C399.202 102.019 398.358 116.091 398.294 121.195C397.569 179.159 397.857 241.889 412.386 298.391C420.809 331.146 443.353 350.63 478.671 349.279C506.596 348.211 549.748 331.038 562.18 303.349C572.58 280.186 565.497 233.035 540.52 219.84C522.429 210.283 502.887 226.079 497.46 243.327C486.172 279.209 510.847 330.991 537.388 355.542C554.323 371.207 582.516 388.693 606.805 378.507C627.97 369.631 646.834 338.145 653.779 317.441C660.122 298.53 662.072 276.726 663.173 256.897C664.253 237.459 663.259 209.146 653.779 191.134C645.779 175.935 573.501 213.241 566.094 218.796C546.773 233.287 577.415 261.172 587.233 269.684C619.128 297.342 660.215 323.831 702.579 331.533C712.339 333.308 713.018 325.084 713.018 316.919C713.018 310.4 712.158 307.076 719.281 305.698C733.288 302.987 747.012 298.523 760.513 293.954C789.81 284.042 823.606 271.32 832.801 238.63C834.634 232.111 843.024 195.907 836.454 191.656C823.21 183.086 839.844 260.059 840.108 261.073C856.199 322.785 895.96 418.115 838.02 471.15C809.863 496.923 782.217 497.662 757.382 466.974C741.59 447.461 745.125 434.423 766.777 426.003C804.592 411.297 843.532 399.323 881.601 385.292C905.304 376.556 951.687 363.78 958.586 333.882C962.37 317.484 952.659 298.803 945.016 285.081C935.597 268.173 924.267 243.424 908.481 231.584C902.432 227.047 921.711 219.849 924.139 218.796C957.533 204.317 990.234 198.07 1019.13 173.91C1051.74 146.643 1085.89 115.106 1083.59 70.0461C1082.4 46.838 1075.16 30.4071 1052.01 22.2894C1050.45 21.741 1027.94 18.8143 1030.87 16.8092C1047.29 5.57834 1074.65 6.72218 1091.94 13.4166C1153.24 37.1539 1167.72 88.7286 1177.8 148.858C1186.72 202.095 1187.45 255.325 1187.45 309.09C1187.45 339.449 1187.45 369.808 1187.45 400.167" stroke="#0099FF" stroke-width="15" stroke-linecap="round"/>
</svg>
