<svg width="67" height="1113" viewBox="0 0 67 1113" fill="none" xmlns="http://www.w3.org/2000/svg">
<path d="M4 0V230.5L10.5 216.5L14 211.5L17.5 209.5L22.5 208.5L27.5 209.5L31.5 211.5L34.5 215L37 219.5L38 225.5L38.5 229.5H45.5H51L54.5 232L58.5 235L61 239.5V246.5L58.5 252L54.5 255.5L47 258.5L33.5 261L4 265.5V536.5L13.5 515.5L21.5 510.5H27L32.5 513.5L35.5 517.5L37 522.5L39 527L40 531.5H47H52.5L55 534L59.5 539L62 545L59.5 553L52.5 559.5L44 562L21.5 565.5L4 568V837.5L10.5 820.5L15 815.5L19.5 813.5H24.5L29.5 815.5L34.5 818L35.5 820.5L38 824L39.5 828.5L41 833H45.5L50 834L55 837.5L59.5 841.5L62 847.5L58.5 856.5L52.5 861.5L41 864.5L28.5 866.5L17 868.5L4 870V1112.5" stroke="#F566AB" stroke-width="8"/>
</svg>
