<svg width="262" height="1124" viewBox="0 0 262 1124" fill="none" xmlns="http://www.w3.org/2000/svg">
<path d="M84.6133 7.50246C84.6133 57.1742 90.0897 105.993 90.0897 155.366C90.0897 200.09 90.0897 244.814 90.0897 289.538C90.0897 299.021 90.0897 308.503 90.0897 317.985C90.0897 326.555 90.0897 300.846 90.0897 292.277C90.0897 282.208 89.2847 272.367 94.197 263.525C96.3518 259.647 99.1894 256.742 101.043 252.572C104.451 244.904 106.511 249.019 111.387 245.118C124.678 234.485 146.764 249.988 147.592 264.894C148.109 274.203 150.33 283.643 150.33 293.646C150.33 311.033 149.981 290.359 150.33 284.062C150.833 275.019 162.7 264.123 170.867 262.308C186.12 258.919 183.464 265.513 188.057 275.847C194.278 289.845 181.9 321.186 169.498 328.482C161.186 333.371 155.604 344.506 148.961 351.148C143.06 357.049 136.502 359.652 130.554 365.6C124.467 371.687 117.352 376.189 110.626 381.421C101.443 388.563 102.286 397.513 96.1746 405.152C89.4277 413.585 95.5661 450.843 95.5661 462.046C95.5661 470.994 93.7797 482.073 95.7183 490.797C96.7582 495.477 99.6534 499.082 98.1522 504.336C97.0195 508.3 91.1785 496.129 90.0897 494.904C79.2921 482.757 64.5067 456.569 46.2783 456.569C23.2662 456.569 34.5889 487.534 37.9116 499.164C42.668 515.811 37.675 498.103 29.8491 497.642C22.1703 497.191 7.94336 485.349 7.94336 499.012C7.94336 522.986 19.1182 528.725 32.5873 545.561C41.0664 556.16 68.0551 568.959 80.506 571.726C97.3676 575.473 101.043 596.992 101.043 611.278C101.043 631.96 109.257 650.731 109.257 671.671C109.257 683.019 114.734 693.388 114.734 703.617C114.734 711.615 115.515 727.334 118.841 734.65C122.958 743.707 120.21 758.716 120.21 768.725C120.21 777.646 122.948 787.169 122.948 794.738C122.948 812.986 120.896 834.788 125.839 852.089C127.358 857.407 128.502 843.184 128.577 842.657C130.007 832.645 137.839 816.5 142.724 807.669C149.276 795.824 160.906 769.57 176.343 766.139C188.715 763.39 202.356 762.625 202.356 776.332C202.356 786.118 202.356 795.905 202.356 805.691C202.356 811.62 197.399 832.187 201.748 823.49C208.401 810.183 223.865 797.032 237.953 792C256.303 785.447 254.382 809.663 254.382 820.751C254.382 845.898 244.368 854.919 231.108 874.299C216.114 896.212 195.61 921.587 168.129 927.694C159.761 929.553 148.909 936.275 142.724 941.841C139.783 944.488 134.864 946.662 131.163 948.839C125.921 951.922 124.429 972.927 123.1 978.351C117.002 1003.25 120.21 1032.05 120.21 1057.61C120.21 1077.8 125.686 1097.28 125.686 1116.48" stroke="#F27DC3" stroke-width="15" stroke-linecap="round"/>
</svg>
