<svg width="520" height="115" viewBox="0 0 520 115" fill="none" xmlns="http://www.w3.org/2000/svg">
<path d="M18.2239 86.1441C16.7519 86.9121 15.1838 87.2961 13.5198 87.2961C11.4718 87.0401 9.48785 86.5281 7.56785 85.7601C5.71185 84.9921 4.33585 84.0641 3.43985 82.9761C2.92785 79.8401 2.51185 76.9601 2.19185 74.3361C1.87185 71.7121 1.61585 69.2481 1.42385 66.9441C1.23185 64.5761 1.10385 62.3361 1.03985 60.2241C0.975848 58.0481 0.943848 55.8721 0.943848 53.6961C0.943848 50.8161 0.975848 47.7761 1.03985 44.576C1.10385 41.376 1.16785 37.9841 1.23185 34.4001C1.35985 30.7521 1.45585 26.8801 1.51985 22.7841C1.58385 18.6241 1.61585 14.1121 1.61585 9.24805C2.44785 9.24805 3.69585 9.50405 5.35985 10.0161C7.02385 10.464 8.65585 11.008 10.2558 11.6481C11.9198 12.2881 13.3918 12.9601 14.6719 13.664C15.9518 14.304 16.6558 14.848 16.7838 15.2961C16.1438 17.0881 15.5678 19.4241 15.0558 22.3041C14.6078 25.184 14.2238 28.384 13.9038 31.904C13.6478 35.4241 13.4558 39.1361 13.3279 43.0401C13.1999 46.9441 13.1358 50.8161 13.1358 54.6561C13.1358 57.5361 13.1678 60.1281 13.2318 62.4321C13.2958 64.6721 13.3598 66.72 13.4238 68.576C13.5518 70.368 13.7118 72.0641 13.9038 73.6641C14.0958 75.2001 14.3198 76.7361 14.5758 78.2721C16.3678 72.8321 18.3198 67.3921 20.4319 61.9521C22.6078 56.5121 24.8158 51.2961 27.0559 46.3041C29.3599 41.2481 31.6319 36.5441 33.8718 32.1921C36.1119 27.84 38.2239 24.064 40.2078 20.864C42.2558 17.6 44.0798 15.04 45.6799 13.184C47.2799 11.2641 48.5919 10.2401 49.6159 10.112C50.3199 10.2401 51.0559 10.5281 51.8239 10.976C52.6559 11.36 53.4239 11.84 54.1278 12.416C54.8318 12.992 55.4718 13.632 56.0478 14.3361C56.6238 15.0401 57.0718 15.744 57.3918 16.448C55.0238 17.28 52.4638 19.232 49.7118 22.3041C47.0238 25.3761 44.3039 29.0881 41.5519 33.4401C38.7999 37.7281 36.1118 42.4321 33.4878 47.5521C30.9278 52.6081 28.5919 57.5681 26.4798 62.4321C24.4318 67.2961 22.6718 71.8401 21.1998 76.0641C19.7278 80.2881 18.7358 83.6481 18.2239 86.1441Z" fill="#F771C1"/>
<path d="M44.2203 73.5681C44.2203 72.9921 44.2523 72.2881 44.3163 71.4561C44.4443 70.5601 44.6363 69.4081 44.8923 68.0001C45.1483 66.5281 45.4683 64.7681 45.8523 62.7201C46.3003 60.6721 46.8443 58.2081 47.4843 55.3281C47.6123 54.6881 47.9003 53.6641 48.3483 52.2561C48.7963 50.8481 49.3723 49.3761 50.0763 47.8401C50.8443 46.2401 51.7403 44.7041 52.7643 43.2321C53.8523 41.7601 55.1323 40.6721 56.6043 39.9681C57.6923 40.2241 59.1323 40.8961 60.9243 41.9841C62.7163 43.0081 64.2523 44.4481 65.5323 46.3041C64.0603 47.9681 62.8123 49.6321 61.7883 51.2961C60.8283 52.9601 59.9323 54.6881 59.1003 56.4801C58.3323 58.2721 57.5963 60.1281 56.8923 62.0481C56.2523 63.9681 55.5163 65.9841 54.6843 68.0961C53.9803 69.8881 53.3403 71.7441 52.7643 73.6641C52.1883 75.5201 51.8683 77.1521 51.8043 78.5601C51.8043 79.7121 51.7723 80.5121 51.7083 80.9601C51.7083 81.4721 51.5483 81.7281 51.2283 81.7281C50.9723 81.7281 50.4603 81.5681 49.6923 81.2481C48.9243 80.9281 48.1243 80.4481 47.2923 79.8081C46.5243 79.1041 45.8203 78.2401 45.1803 77.2161C44.5403 76.1921 44.2203 74.9761 44.2203 73.5681ZM62.5563 31.904C62.5563 31.5201 62.6523 30.944 62.8443 30.176C62.5243 29.856 62.2363 29.376 61.9804 28.736C61.7883 28.0961 61.6923 27.5201 61.6923 27.008C61.6923 26.432 61.7563 25.664 61.8843 24.7041C62.0763 23.6801 62.3003 22.5921 62.5563 21.4401C62.8123 20.2881 63.1323 19.1041 63.5163 17.8881C63.9003 16.608 64.2843 15.456 64.6684 14.4321C65.4363 14.4321 66.3643 14.656 67.4523 15.104C68.6043 15.4881 69.7563 16.0321 70.9083 16.736C72.0603 17.376 73.1163 18.112 74.0763 18.944C75.0363 19.7121 75.7723 20.4481 76.2843 21.1521C75.5803 21.856 74.6524 22.848 73.5004 24.1281C72.3484 25.3441 71.2283 26.6561 70.1404 28.0641C69.0523 29.4081 68.0603 30.688 67.1643 31.904C66.2683 33.1201 65.6923 33.984 65.4363 34.496C64.6683 34.368 63.9963 34.048 63.4203 33.536C62.8443 32.96 62.5563 32.416 62.5563 31.904Z" fill="#F771C1"/>
<path d="M66.7159 73.8561C66.7159 71.0401 67.3878 67.1041 68.7318 62.0481C70.0759 56.9281 71.9639 50.9761 74.3959 44.1921C78.3639 33.376 82.0759 24.384 85.5319 17.216C89.0519 9.98405 92.4758 4.35205 95.8038 0.320049C96.5718 0.448048 97.4999 0.768047 98.5879 1.28005C99.7399 1.79205 100.86 2.36805 101.948 3.00805C103.036 3.58405 103.996 4.19205 104.828 4.83205C105.724 5.47205 106.3 5.98405 106.556 6.36805C101.564 12.2561 97.1798 18.5921 93.4038 25.3761C89.6278 32.1601 86.1719 39.9361 83.0359 48.7041C80.3479 56.2561 78.2998 63.0721 76.8918 69.1521C75.4838 75.1681 74.7798 80.1921 74.7798 84.2241C74.7798 85.3121 74.7798 85.9841 74.7798 86.2401C74.7798 86.4961 74.8118 86.7521 74.8758 87.0081C73.9798 86.8801 73.2118 86.6561 72.5718 86.3361C71.9318 86.0161 71.5158 85.6321 71.3238 85.1841C71.1958 84.8641 70.8438 84.3841 70.2678 83.7441C69.6918 83.1681 69.1798 82.7201 68.7318 82.4001C68.1558 82.0161 67.6758 81.0241 67.2918 79.4241C66.9078 77.7601 66.7159 75.9041 66.7159 73.8561Z" fill="#F771C1"/>
<path d="M89.4034 73.8561C89.4034 71.0401 90.0753 67.1041 91.4193 62.0481C92.7634 56.9281 94.6514 50.9761 97.0834 44.1921C101.051 33.376 104.763 24.384 108.219 17.216C111.739 9.98405 115.163 4.35205 118.491 0.320049C119.259 0.448048 120.187 0.768047 121.275 1.28005C122.427 1.79205 123.547 2.36805 124.635 3.00805C125.723 3.58405 126.683 4.19205 127.515 4.83205C128.411 5.47205 128.987 5.98405 129.243 6.36805C124.251 12.2561 119.867 18.5921 116.091 25.3761C112.315 32.1601 108.859 39.9361 105.723 48.7041C103.035 56.2561 100.987 63.0721 99.5793 69.1521C98.1713 75.1681 97.4673 80.1921 97.4673 84.2241C97.4673 85.3121 97.4673 85.9841 97.4673 86.2401C97.4673 86.4961 97.4993 86.7521 97.5633 87.0081C96.6673 86.8801 95.8993 86.6561 95.2593 86.3361C94.6193 86.0161 94.2033 85.6321 94.0113 85.1841C93.8833 84.8641 93.5313 84.3841 92.9553 83.7441C92.3793 83.1681 91.8673 82.7201 91.4193 82.4001C90.8433 82.0161 90.3633 81.0241 89.9793 79.4241C89.5953 77.7601 89.4034 75.9041 89.4034 73.8561Z" fill="#F771C1"/>
<path d="M144.932 41.2161C145.572 41.2161 146.308 41.3441 147.14 41.6001C148.036 41.7921 148.836 42.0801 149.54 42.4641C150.244 42.7841 150.82 43.1361 151.268 43.5201C151.78 43.9041 152.036 44.2561 152.036 44.576C150.756 47.264 149.572 49.9841 148.484 52.7361C147.396 55.4241 146.468 58.0161 145.7 60.5121C144.932 63.0081 144.324 65.3441 143.876 67.5201C143.492 69.6961 143.3 71.5841 143.3 73.1841C143.3 74.9761 143.492 76.4801 143.876 77.6961C144.26 78.8481 144.9 79.6801 145.796 80.1921C145.028 80.7041 144.036 81.1201 142.82 81.4401C141.604 81.7601 140.516 81.9201 139.556 81.9201C136.1 81.9201 134.372 79.5521 134.372 74.8161C134.372 71.1681 135.588 66.1761 138.02 59.8401C136.74 62.7841 135.268 65.5681 133.604 68.1921C131.94 70.7521 130.244 73.0241 128.516 75.0081C126.788 76.9921 125.028 78.6241 123.236 79.9041C121.508 81.1201 119.908 81.8561 118.436 82.1121C116.068 81.9841 114.148 80.8641 112.676 78.7521C111.204 76.5761 110.468 73.8241 110.468 70.4961C110.468 66.9121 111.236 63.1361 112.772 59.1681C114.308 55.2001 116.26 51.5201 118.628 48.1281C121.06 44.7361 123.684 41.9201 126.5 39.6801C129.316 37.3761 132.036 36.1601 134.66 36.0321C135.3 36.2241 136.004 36.6081 136.772 37.1841C137.604 37.7601 138.372 38.4321 139.076 39.2001C139.844 39.9681 140.484 40.7681 140.996 41.6001C141.508 42.3681 141.796 43.0401 141.86 43.6161C139.3 44 136.644 45.2481 133.892 47.3601C131.204 49.4721 128.74 52.0321 126.5 55.0401C124.324 57.9841 122.532 61.1521 121.124 64.5441C119.716 67.9361 119.012 71.104 119.012 74.048C119.012 75.2641 119.46 76.0321 120.356 76.3521C122.212 75.9681 124.356 74.4001 126.788 71.6481C129.22 68.8321 132.164 64.5121 135.62 58.6881C136.26 57.5361 136.964 56.2561 137.732 54.8481C138.564 53.4401 139.396 51.9681 140.228 50.4321C141.06 48.8961 141.86 47.3601 142.628 45.8241C143.46 44.2241 144.228 42.6881 144.932 41.2161Z" fill="#F771C1"/>
<path d="M181.893 62.0481C184.261 52.5761 186.565 45.6641 188.805 41.312C191.109 36.896 193.509 34.688 196.005 34.688C197.797 34.688 199.941 35.5521 202.437 37.2801C200.389 40.9281 198.789 43.9681 197.637 46.4001C196.549 48.7681 195.749 50.9441 195.237 52.9281C194.149 56.7681 192.997 60.7681 191.781 64.9281C190.565 69.0241 189.349 72.9601 188.133 76.7361C186.981 80.5121 185.893 83.9041 184.869 86.9121C183.909 89.9841 183.141 92.3201 182.565 93.9201C181.157 97.6961 179.749 100.896 178.341 103.52C176.997 106.144 175.589 108.288 174.117 109.952C172.645 111.616 171.109 112.832 169.509 113.6C167.845 114.368 166.053 114.752 164.133 114.752C162.725 114.752 161.349 114.592 160.005 114.272C158.597 114.016 157.285 113.632 156.069 113.12C154.853 112.672 153.765 112.096 152.805 111.392C151.845 110.688 151.077 109.952 150.501 109.184C150.565 108.736 150.789 108.288 151.173 107.84C151.493 107.456 151.813 107.232 152.133 107.168C153.221 108.32 154.373 109.152 155.589 109.664C156.741 110.176 158.149 110.432 159.813 110.432C161.861 110.432 163.685 109.824 165.285 108.608C166.821 107.392 168.389 105.024 169.989 101.504C171.589 98.0481 173.317 93.1521 175.173 86.8161C177.029 80.5441 179.269 72.2881 181.893 62.0481ZM197.541 27.1041C197.541 26.784 197.637 26.24 197.829 25.4721C197.061 24.7041 196.677 23.616 196.677 22.208C196.677 21.6321 196.741 20.8321 196.869 19.8081C197.061 18.7841 197.285 17.6961 197.541 16.5441C197.861 15.3281 198.181 14.1121 198.501 12.896C198.885 11.68 199.269 10.624 199.653 9.72805C200.421 9.72805 201.349 9.95205 202.437 10.4001C203.589 10.784 204.741 11.3281 205.893 12.0321C207.045 12.6721 208.101 13.4081 209.061 14.24C210.021 15.008 210.757 15.744 211.269 16.448C210.501 17.1521 209.541 18.1441 208.389 19.424C207.237 20.7041 206.117 22.0481 205.029 23.456C203.941 24.8001 202.949 26.0801 202.053 27.2961C201.157 28.4481 200.613 29.2801 200.421 29.7921C199.653 29.6641 198.981 29.344 198.405 28.832C197.829 28.256 197.541 27.68 197.541 27.1041Z" fill="#F771C1"/>
<path d="M213.796 83.3601C210.148 82.9761 207.236 81.3761 205.06 78.5601C202.884 75.7441 201.796 72.1601 201.796 67.8081C201.796 65.2481 202.18 62.5921 202.948 59.8401C203.716 57.0881 204.804 54.4321 206.212 51.8721C207.62 49.2481 209.284 46.7841 211.204 44.4801C213.124 42.1761 215.204 40.1921 217.444 38.5281C220.964 35.9041 224.26 34.5921 227.332 34.5921C229.38 35.6801 231.396 37.952 233.38 41.4081C233.7 41.4081 233.988 41.4081 234.244 41.4081C234.5 41.344 234.788 41.312 235.108 41.312C238.5 41.312 240.196 44.3201 240.196 50.3361C240.196 54.3681 239.524 58.2081 238.18 61.8561C236.9 65.4401 235.076 68.7041 232.708 71.6481C230.404 74.5921 227.62 77.0881 224.356 79.1361C221.156 81.1201 217.636 82.5281 213.796 83.3601ZM218.692 53.1201C217.604 54.5921 216.58 56.1921 215.62 57.9201C214.66 59.6481 213.828 61.4081 213.124 63.2001C212.42 64.9281 211.876 66.6241 211.492 68.2881C211.108 69.8881 210.916 71.3281 210.916 72.6081C210.916 74.1441 211.172 75.6161 211.684 77.0241C212.196 78.4321 212.772 79.2321 213.412 79.4241C216.292 78.7841 218.916 77.6001 221.284 75.8721C223.716 74.0801 225.796 71.8721 227.524 69.2481C229.316 66.6241 230.692 63.6481 231.652 60.3201C232.676 56.9921 233.188 53.4401 233.188 49.6641C233.188 48.0001 233.092 46.6881 232.9 45.7281C232.708 44.7681 232.388 43.9361 231.94 43.2321C229.124 44.0641 226.596 45.4081 224.356 47.2641C222.18 49.1201 220.292 51.0721 218.692 53.1201Z" fill="#F771C1"/>
<path d="M245.035 70.9761C245.035 68.6721 245.611 65.4721 246.763 61.3761C247.979 57.2801 249.547 52.8001 251.467 47.9361C253.387 43.0721 255.563 38.0481 257.995 32.8641C260.427 27.6801 262.859 22.8481 265.291 18.3681C267.787 13.8881 270.155 10.0161 272.395 6.75205C274.699 3.48805 276.651 1.28005 278.251 0.128052C279.147 0.192051 280.107 0.57605 281.131 1.28005C282.219 1.98405 283.211 2.84805 284.107 3.87205C285.003 4.83205 285.739 5.85605 286.315 6.94405C286.955 8.03205 287.275 9.02405 287.275 9.92005C284.395 12.2241 281.451 15.2001 278.443 18.8481C275.499 22.4321 272.683 26.4001 269.995 30.7521C267.307 35.0401 264.811 39.6161 262.507 44.4801C260.267 49.2801 258.379 54.0161 256.843 58.6881C258.891 55.1681 261.035 51.9681 263.275 49.0881C265.515 46.2081 267.755 43.7441 269.995 41.6961C272.235 39.6481 274.411 38.08 276.523 36.9921C278.699 35.84 280.747 35.2321 282.667 35.1681C285.483 37.2161 286.891 39.936 286.891 43.328C286.891 45.376 286.475 47.4561 285.643 49.5681C284.811 51.6161 283.691 53.5361 282.283 55.3281C280.939 57.0561 279.371 58.5601 277.579 59.8401C275.851 61.0561 274.027 61.8561 272.107 62.2401C272.747 64.4801 273.547 66.7521 274.507 69.0561C275.531 71.3601 276.715 73.6001 278.059 75.7761C279.467 77.9521 281.035 79.9681 282.763 81.8241C284.555 83.6801 286.571 85.2481 288.811 86.5281C288.491 87.1681 288.011 87.8081 287.371 88.4481C286.731 89.0881 285.963 89.6321 285.067 90.0801C284.171 90.5921 283.179 90.9761 282.091 91.2321C281.067 91.5521 280.043 91.7121 279.019 91.7121C277.291 91.7121 275.659 90.8481 274.123 89.1201C272.651 87.3921 271.307 84.8961 270.091 81.6321C269.131 79.0081 268.203 75.8721 267.307 72.2241C266.411 68.5761 265.611 64.7681 264.907 60.8001C265.803 60.2241 266.923 59.3921 268.267 58.3041C269.611 57.1521 271.019 55.84 272.491 54.368C278.123 48.928 280.939 44.2241 280.939 40.2561C280.939 39.7441 280.587 39.4881 279.883 39.4881C278.603 39.5521 277.099 40.16 275.371 41.312C273.643 42.4641 271.787 44.0641 269.803 46.1121C267.883 48.1601 265.899 50.5601 263.851 53.312C261.867 56.0641 259.947 59.0401 258.091 62.2401C257.323 63.5201 256.619 64.9921 255.979 66.6561C255.339 68.3201 254.763 70.048 254.251 71.84C253.803 73.568 253.451 75.2961 253.195 77.0241C252.939 78.7521 252.811 80.3521 252.811 81.8241C252.811 82.7201 252.907 83.4561 253.099 84.0321C251.115 83.8401 249.899 83.3281 249.451 82.4961C248.939 81.7281 248.491 81.088 248.107 80.576C247.787 80.128 247.435 79.7441 247.051 79.4241C246.475 78.9761 245.995 78.0161 245.611 76.5441C245.227 75.0721 245.035 73.2161 245.035 70.9761Z" fill="#F771C1"/>
<path d="M318.58 77.8881C317.364 76.8641 316.532 75.584 316.084 74.048C315.7 72.512 315.508 71.2001 315.508 70.1121C315.508 68.7681 315.668 67.6161 315.988 66.6561C315.732 66.6561 315.156 67.1681 314.26 68.1921C313.364 69.2161 312.372 70.432 311.284 71.84C310.26 73.248 309.236 74.6241 308.212 75.9681C307.188 77.3121 306.42 78.3041 305.908 78.9441C305.076 79.8401 304.276 80.5441 303.508 81.0561C302.804 81.5681 302.228 81.8561 301.78 81.9201C300.756 81.8561 299.668 81.6321 298.516 81.2481C297.428 80.9281 296.372 80.4481 295.348 79.8081C294.388 79.1681 293.524 78.4001 292.756 77.5041C292.052 76.6081 291.572 75.5841 291.316 74.4321C291.316 72.6401 291.348 71.1681 291.412 70.0161C291.54 68.8641 291.764 67.616 292.084 66.272C292.66 63.84 293.492 61.0881 294.58 58.0161C295.732 54.9441 297.044 51.9361 298.516 48.9921C299.988 45.9841 301.62 43.2001 303.412 40.6401C305.268 38.0161 307.22 35.968 309.268 34.496C309.844 34.496 310.516 34.56 311.284 34.688C312.052 34.7521 312.82 34.9121 313.588 35.1681C314.42 35.4241 315.188 35.7441 315.892 36.1281C316.66 36.4481 317.3 36.8961 317.812 37.4721C317.236 38.1121 315.764 40.2561 313.396 43.9041C311.092 47.5521 308.5 52.8001 305.62 59.6481C305.3 60.3521 304.916 61.3761 304.468 62.7201C304.02 64.0641 303.572 65.4721 303.124 66.9441C302.676 68.4161 302.292 69.8561 301.972 71.2641C301.716 72.6721 301.588 73.7921 301.588 74.6241C301.588 75.1361 301.652 75.5201 301.78 75.7761C301.972 76.0321 302.132 76.2241 302.26 76.3521C303.22 75.9681 304.436 74.9121 305.908 73.1841C307.38 71.4561 309.428 68.8 312.052 65.216C312.692 64.32 313.428 63.2961 314.26 62.1441C315.156 60.9921 316.052 59.7761 316.948 58.4961C317.844 57.1521 318.676 55.7761 319.444 54.368C320.276 52.9601 320.948 51.5521 321.46 50.1441C321.716 49.3761 322.036 48.4801 322.42 47.4561C322.868 46.3681 323.38 45.2481 323.956 44.0961C324.596 42.9441 325.3 41.7921 326.068 40.6401C326.9 39.4241 327.86 38.3041 328.948 37.2801C329.78 37.2801 330.676 37.3761 331.636 37.5681C332.596 37.7601 333.492 38.0161 334.324 38.3361C335.22 38.5921 335.988 38.9121 336.628 39.2961C337.268 39.6161 337.748 39.9681 338.068 40.3521C336.916 43.1681 335.636 45.9521 334.228 48.7041C332.82 51.4561 331.508 54.1761 330.292 56.8641C329.076 59.4881 328.052 62.1121 327.22 64.7361C326.388 67.3601 325.972 69.9201 325.972 72.4161C325.972 73.7601 326.068 74.9441 326.26 75.9681C326.516 76.9281 326.772 77.7601 327.028 78.4641C327.284 79.1041 327.508 79.6481 327.7 80.0961C327.956 80.5441 328.084 80.9281 328.084 81.2481C328.084 81.3121 328.02 81.4081 327.892 81.5361C327.828 81.6001 327.764 81.6321 327.7 81.6321C327.252 81.6321 326.676 81.5361 325.972 81.3441C325.268 81.1521 324.468 80.8641 323.572 80.4801C322.74 80.1601 321.876 79.7761 320.98 79.3281C320.148 78.8801 319.348 78.4001 318.58 77.8881Z" fill="#F771C1"/>
<path d="M355.458 33.4401C357.122 33.9521 358.69 35.104 360.162 36.896C361.634 38.6241 362.722 40.5441 363.426 42.6561C362.722 44.3841 361.634 46.4641 360.162 48.8961C358.69 51.3281 357.218 53.8241 355.746 56.3841C354.274 58.8801 352.93 61.2801 351.714 63.5841C350.562 65.8241 349.89 67.6801 349.698 69.1521C350.722 68.0641 351.842 66.8161 353.058 65.4081C354.338 63.9361 355.554 62.4961 356.706 61.0881C357.922 59.6161 359.042 58.3041 360.066 57.1521C361.09 55.9361 361.89 55.0401 362.466 54.4641C363.682 53.1841 365.122 51.7121 366.786 50.0481C368.45 48.3201 370.178 46.7201 371.97 45.2481C373.826 43.7121 375.682 42.4321 377.538 41.4081C379.394 40.32 381.09 39.7761 382.626 39.7761C384.29 39.7761 385.666 40.3521 386.754 41.5041C387.906 42.5921 388.802 43.7441 389.442 44.9601C389.442 45.0881 389.186 45.2801 388.674 45.536C388.226 45.7281 387.554 46.3361 386.658 47.3601C385.762 48.5121 384.738 50.112 383.586 52.16C382.498 54.1441 381.41 56.3201 380.322 58.6881C379.298 60.9921 378.434 63.3601 377.73 65.7921C377.026 68.2241 376.674 70.4321 376.674 72.4161C376.674 74.0161 376.866 75.0401 377.25 75.4881C377.698 75.9361 378.306 76.16 379.074 76.16C379.778 76.16 380.514 76.0001 381.282 75.6801C382.05 75.3601 382.658 75.2001 383.106 75.2001C383.362 75.3281 383.554 75.6161 383.682 76.0641C383.874 76.4481 383.97 76.8001 383.97 77.1201C383.458 77.5681 382.85 78.0161 382.146 78.4641C381.442 78.9121 380.706 79.3281 379.938 79.7121C379.17 80.0961 378.402 80.4161 377.634 80.6721C376.93 80.9281 376.29 81.0561 375.714 81.0561C373.858 81.0561 372.322 80.7681 371.106 80.1921C369.954 79.6801 369.026 78.9761 368.322 78.0801C367.682 77.1841 367.234 76.1281 366.978 74.9121C366.722 73.6321 366.594 72.2881 366.594 70.8801C366.594 70.1121 366.658 69.2481 366.786 68.2881C366.914 67.3281 367.17 66.2081 367.554 64.9281C367.938 63.5841 368.482 62.0161 369.186 60.2241C369.89 58.3681 370.786 56.1601 371.874 53.6001C371.746 53.6001 370.882 54.0481 369.282 54.9441C367.682 55.8401 365.954 57.2161 364.098 59.0721C361.09 61.9521 358.37 64.8001 355.938 67.6161C353.57 70.4321 351.138 73.5681 348.642 77.0241C347.234 79.0081 345.986 80.6721 344.898 82.0161C343.874 83.4241 342.978 84.3521 342.21 84.8001C340.866 84.0321 339.874 82.9441 339.234 81.5361C338.594 80.1921 338.114 78.784 337.794 77.312C337.794 76.096 337.954 74.5601 338.274 72.7041C338.658 70.8481 339.138 68.8001 339.714 66.5601C340.354 64.2561 341.122 61.8561 342.018 59.3601C342.914 56.8641 343.906 54.3681 344.994 51.8721C347.426 46.2401 349.634 41.8241 351.618 38.6241C353.666 35.424 354.946 33.6961 355.458 33.4401Z" fill="#F771C1"/>
<path d="M391.845 73.5681C391.845 72.9921 391.877 72.2881 391.941 71.4561C392.069 70.5601 392.261 69.4081 392.517 68.0001C392.773 66.5281 393.093 64.7681 393.477 62.7201C393.925 60.6721 394.469 58.2081 395.109 55.3281C395.237 54.6881 395.525 53.6641 395.973 52.2561C396.421 50.8481 396.997 49.3761 397.701 47.8401C398.469 46.2401 399.365 44.7041 400.389 43.2321C401.477 41.7601 402.757 40.6721 404.229 39.9681C405.317 40.2241 406.757 40.8961 408.549 41.9841C410.341 43.0081 411.877 44.4481 413.157 46.3041C411.685 47.9681 410.437 49.6321 409.413 51.2961C408.453 52.9601 407.557 54.6881 406.725 56.4801C405.957 58.2721 405.221 60.1281 404.517 62.0481C403.877 63.9681 403.141 65.9841 402.309 68.0961C401.605 69.8881 400.965 71.7441 400.389 73.6641C399.813 75.5201 399.493 77.1521 399.429 78.5601C399.429 79.7121 399.397 80.5121 399.333 80.9601C399.333 81.4721 399.173 81.7281 398.853 81.7281C398.597 81.7281 398.085 81.5681 397.317 81.2481C396.549 80.9281 395.749 80.4481 394.917 79.8081C394.149 79.1041 393.445 78.2401 392.805 77.2161C392.165 76.1921 391.845 74.9761 391.845 73.5681ZM410.181 31.904C410.181 31.5201 410.277 30.944 410.469 30.176C410.149 29.856 409.861 29.376 409.605 28.736C409.413 28.0961 409.317 27.5201 409.317 27.008C409.317 26.432 409.381 25.664 409.509 24.7041C409.701 23.6801 409.925 22.5921 410.181 21.4401C410.437 20.2881 410.757 19.1041 411.141 17.8881C411.525 16.608 411.909 15.456 412.293 14.4321C413.061 14.4321 413.989 14.656 415.077 15.104C416.229 15.4881 417.381 16.0321 418.533 16.736C419.685 17.376 420.741 18.112 421.701 18.944C422.661 19.7121 423.397 20.4481 423.909 21.1521C423.205 21.856 422.277 22.848 421.125 24.1281C419.973 25.3441 418.853 26.6561 417.765 28.0641C416.677 29.4081 415.685 30.688 414.789 31.904C413.893 33.1201 413.317 33.984 413.061 34.496C412.293 34.368 411.621 34.048 411.045 33.536C410.469 32.96 410.181 32.416 410.181 31.904Z" fill="#F771C1"/>
<path d="M469.925 50.5281C468.901 50.5921 467.653 51.2641 466.181 52.5441C464.709 53.7601 463.109 55.3601 461.381 57.3441C459.717 59.2641 457.957 61.4081 456.101 63.7761C454.309 66.1441 452.549 68.5121 450.821 70.8801C449.157 73.1841 447.589 75.3601 446.117 77.4081C444.645 79.4561 443.397 81.0881 442.373 82.3041C440.965 81.7281 439.749 80.8961 438.725 79.8081C437.701 78.6561 436.965 77.2481 436.517 75.5841C436.837 73.6001 437.285 71.5521 437.861 69.4401C438.437 67.2641 439.173 65.0241 440.069 62.7201C441.029 60.4161 442.181 58.0161 443.525 55.5201C444.933 52.9601 446.629 50.2721 448.613 47.4561C447.653 47.5201 446.341 48.2241 444.677 49.5681C443.013 50.8481 441.221 52.5441 439.301 54.6561C437.381 56.7041 435.397 59.0401 433.349 61.6641C431.301 64.2241 429.381 66.7521 427.589 69.2481C425.221 72.5761 423.237 75.4881 421.637 77.9841C420.101 80.4801 418.981 81.9521 418.277 82.4001C416.613 81.1841 415.461 79.8721 414.821 78.4641C414.181 77.0561 413.701 75.4881 413.381 73.7601C413.445 72.2241 413.669 70.3041 414.053 68.0001C414.501 65.6961 415.109 63.3281 415.877 60.8961C417.349 56.2241 419.237 51.5841 421.541 46.9761C423.909 42.3681 426.181 38.1441 428.357 34.3041C430.149 34.6881 431.749 35.2961 433.157 36.1281C434.629 36.9601 436.165 38.1761 437.765 39.7761C437.125 41.7601 436.133 43.8721 434.789 46.1121C433.445 48.2881 432.037 50.5921 430.565 53.0241C429.093 55.4561 427.749 57.9521 426.533 60.5121C425.317 63.0721 424.517 65.6641 424.133 68.2881C425.925 65.7281 428.037 62.7841 430.469 59.4561C432.965 56.1281 435.493 52.9921 438.053 50.0481C440.677 47.1041 443.269 44.6081 445.829 42.5601C448.389 40.5121 450.693 39.4881 452.741 39.4881C453.509 39.4881 454.341 39.6161 455.237 39.8721C456.133 40.128 456.965 40.448 457.733 40.8321C458.501 41.2161 459.141 41.6001 459.653 41.9841C460.165 42.3041 460.453 42.5601 460.517 42.7521C460.197 44.0321 459.429 45.792 458.213 48.0321C457.061 50.208 455.813 52.5121 454.469 54.9441C453.125 57.3761 451.877 59.7441 450.725 62.0481C449.573 64.2881 448.901 66.08 448.709 67.424C451.845 63.136 454.789 59.2641 457.541 55.8081C460.293 52.2881 462.885 49.2801 465.317 46.784C467.749 44.288 469.989 42.3681 472.037 41.0241C474.149 39.6801 476.133 39.0081 477.989 39.0081C479.269 39.0081 480.453 39.3601 481.541 40.0641C482.693 40.7041 483.493 41.6641 483.941 42.9441C483.365 44.8641 482.405 47.1681 481.061 49.8561C479.781 52.5441 478.469 55.3921 477.125 58.4001C475.781 61.3441 474.565 64.2561 473.477 67.1361C472.453 70.0161 471.941 72.6081 471.941 74.9121C471.941 76.2561 472.133 77.1521 472.517 77.6001C472.901 77.9841 473.445 78.1761 474.149 78.1761C474.917 78.1761 475.621 78.0481 476.261 77.7921C476.965 77.4721 477.477 77.312 477.797 77.312C478.181 77.568 478.405 77.8881 478.469 78.2721C478.533 78.6561 478.565 79.0081 478.565 79.3281C477.285 80.3521 475.973 81.1841 474.629 81.8241C473.285 82.5281 471.781 82.8801 470.117 82.8801C468.581 82.8801 467.301 82.6241 466.277 82.1121C465.317 81.6001 464.517 80.8961 463.877 80.0001C463.237 79.1041 462.789 78.0801 462.533 76.9281C462.277 75.7761 462.149 74.5281 462.149 73.1841C462.149 71.0081 462.437 68.8641 463.013 66.7521C463.589 64.5761 464.261 62.5281 465.029 60.6081C465.861 58.6241 466.725 56.8001 467.621 55.1361C468.517 53.4081 469.285 51.8721 469.925 50.5281Z" fill="#F771C1"/>
<path d="M487.939 73.5681C487.939 72.9921 487.971 72.2881 488.035 71.4561C488.163 70.5601 488.355 69.4081 488.611 68.0001C488.867 66.5281 489.187 64.7681 489.571 62.7201C490.019 60.6721 490.563 58.2081 491.203 55.3281C491.331 54.6881 491.619 53.6641 492.067 52.2561C492.515 50.8481 493.091 49.3761 493.795 47.8401C494.563 46.2401 495.459 44.7041 496.483 43.2321C497.571 41.7601 498.851 40.6721 500.323 39.9681C501.411 40.2241 502.851 40.8961 504.643 41.9841C506.435 43.0081 507.971 44.4481 509.251 46.3041C507.779 47.9681 506.531 49.6321 505.507 51.2961C504.547 52.9601 503.651 54.6881 502.819 56.4801C502.051 58.2721 501.315 60.1281 500.611 62.0481C499.971 63.9681 499.235 65.9841 498.403 68.0961C497.699 69.8881 497.059 71.7441 496.483 73.6641C495.907 75.5201 495.587 77.1521 495.523 78.5601C495.523 79.7121 495.491 80.5121 495.427 80.9601C495.427 81.4721 495.267 81.7281 494.947 81.7281C494.691 81.7281 494.179 81.5681 493.411 81.2481C492.643 80.9281 491.843 80.4481 491.011 79.8081C490.243 79.1041 489.539 78.2401 488.899 77.2161C488.259 76.1921 487.939 74.9761 487.939 73.5681ZM506.275 31.904C506.275 31.5201 506.371 30.944 506.563 30.176C506.243 29.856 505.955 29.376 505.699 28.736C505.507 28.0961 505.411 27.5201 505.411 27.008C505.411 26.432 505.475 25.664 505.603 24.7041C505.795 23.6801 506.019 22.5921 506.275 21.4401C506.531 20.2881 506.851 19.1041 507.235 17.8881C507.619 16.608 508.003 15.456 508.387 14.4321C509.155 14.4321 510.083 14.656 511.171 15.104C512.323 15.4881 513.475 16.0321 514.627 16.736C515.779 17.376 516.835 18.112 517.795 18.944C518.755 19.7121 519.491 20.4481 520.003 21.1521C519.299 21.856 518.371 22.848 517.219 24.1281C516.067 25.3441 514.947 26.6561 513.859 28.0641C512.771 29.4081 511.779 30.688 510.883 31.904C509.987 33.1201 509.411 33.984 509.155 34.496C508.387 34.368 507.715 34.048 507.139 33.536C506.563 32.96 506.275 32.416 506.275 31.904Z" fill="#F771C1"/>
</svg>
