<svg width="1728" height="529" viewBox="0 0 1728 529" fill="none" xmlns="http://www.w3.org/2000/svg">
<path d="M0 0L48 24.5857C96 49.1715 192 98.3429 288 114.708C384 131.38 480 114.477 576 90.1221C672 65.3058 768 33.0371 864 20.5137C960 8.45134 1056 16.1344 1152 45.0994C1248 73.7572 1344 122.929 1440 131.149C1536 139.063 1632 106.794 1680 90.1221L1728 73.7572V196.686H1680C1632 196.686 1536 196.686 1440 196.686C1344 196.686 1248 196.686 1152 196.686C1056 196.686 960 196.686 864 196.686C768 196.686 672 196.686 576 196.686C480 196.686 384 196.686 288 196.686C192 196.686 96 196.686 48 196.686H0V0Z" fill="white"/>
<rect y="191.714" width="1728" height="337.285" fill="white"/>
</svg>